<?xml version="1.0" standalone="no"?>
<!DOCTYPE svg PUBLIC "-//W3C//DTD SVG 20010904//EN"
 "http://www.w3.org/TR/2001/REC-SVG-20010904/DTD/svg10.dtd">
<svg version="1.0" xmlns="http://www.w3.org/2000/svg"
 width="225.000000pt" height="225.000000pt" viewBox="0 0 225.000000 225.000000"
 preserveAspectRatio="xMidYMid meet">

<g transform="translate(0.000000,225.000000) scale(0.100000,-0.100000)"
fill="#000000" stroke="none">
<path d="M845 2240 c-85 -22 -133 -60 -142 -113 -3 -20 -2 -44 2 -54 4 -10 7
-28 6 -40 -1 -12 7 -27 19 -36 18 -13 20 -21 14 -53 -4 -22 -6 -41 -5 -43 2
-2 -3 -7 -10 -12 -10 -6 -10 -11 0 -22 9 -12 9 -17 -1 -23 -7 -5 -17 -9 -22
-9 -5 0 -11 -7 -13 -15 -4 -13 -3 -13 7 0 9 13 10 12 7 -5 -2 -11 -8 -19 -14
-18 -6 1 -14 -4 -17 -13 -3 -9 -2 -12 5 -8 6 3 5 -3 -2 -14 -13 -20 -13 -20
-30 -1 -21 25 -28 24 -63 -8 -26 -22 -28 -27 -15 -37 8 -6 26 -29 39 -51 13
-22 25 -41 26 -43 3 -4 32 12 57 32 15 12 17 18 7 36 -9 17 -9 25 4 38 8 10
20 40 26 67 6 27 19 58 28 68 15 17 15 17 -1 11 -18 -6 -24 10 -8 20 23 14 63
-15 83 -61 18 -40 22 -76 27 -213 7 -170 11 -188 54 -228 16 -15 23 -31 21
-45 -4 -20 -4 -20 6 2 9 20 5 29 -23 61 l-34 37 -7 149 c-8 156 -19 231 -42
276 l-14 27 31 -9 c40 -12 59 -28 59 -51 0 -11 7 -17 19 -16 16 1 15 6 -12 39
-33 41 -28 66 12 53 21 -6 66 -89 57 -104 -3 -4 1 -17 9 -27 13 -18 14 -16 15
19 0 21 -7 48 -16 61 -8 14 -11 27 -6 30 14 8 35 -21 47 -63 8 -28 16 -37 37
-39 23 -3 26 0 21 20 -3 13 -12 31 -20 40 -8 9 -12 21 -9 26 10 17 71 23 105
11 17 -6 34 -9 37 -7 2 3 -18 12 -46 21 -38 12 -57 14 -80 6 -25 -9 -34 -7
-55 9 l-25 20 30 11 31 10 -4 71 c-3 41 -11 80 -21 95 -9 13 -16 33 -16 43 0
20 -50 62 -74 62 -13 0 -32 -35 -29 -51 1 -3 -4 -6 -11 -6 -10 0 -9 7 3 29 14
25 14 29 1 38 -17 11 -23 11 -65 0z m60 -9 c3 -5 1 -12 -5 -16 -5 -3 -10 1
-10 9 0 18 6 21 15 7z m-40 -11 c3 -6 -1 -7 -9 -4 -18 7 -21 14 -7 14 6 0 13
-4 16 -10z m138 -65 c-3 -9 -8 -14 -10 -11 -3 3 -2 9 2 15 9 16 15 13 8 -4z
m-167 -170 c-1 -8 -8 -21 -14 -27 -9 -9 -12 -7 -12 9 0 12 6 24 13 26 6 3 13
6 14 6 1 1 0 -6 -1 -14z m34 -57 c0 -5 -7 -3 -15 6 -8 8 -15 18 -15 22 0 3 7
1 15 -6 8 -7 15 -17 15 -22z m-105 2 c3 -5 1 -10 -4 -10 -6 0 -11 5 -11 10 0
6 2 10 4 10 3 0 8 -4 11 -10z m290 -50 c-3 -5 1 -20 9 -32 20 -28 20 -48 2
-48 -8 0 -17 14 -21 33 -4 17 -12 38 -17 45 -8 9 -5 12 11 12 12 0 19 -4 16
-10z"/>
<path d="M332 1976 c-15 -16 -19 -27 -12 -31 6 -4 9 -14 6 -24 -4 -11 -2 -10
10 4 10 12 14 14 11 5 -2 -8 3 -24 12 -35 16 -20 16 -20 -6 -2 -20 18 -22 18
-33 0 -10 -16 -11 -16 -6 0 3 11 0 17 -9 17 -25 0 -17 -24 21 -69 32 -37 49
-45 49 -23 1 16 17 32 33 31 13 0 11 -3 -5 -9 -15 -6 -21 -15 -18 -30 2 -11 0
-18 -6 -15 -14 9 -12 5 35 -96 72 -156 119 -188 197 -133 l38 26 -35 49 c-44
60 -124 140 -135 134 -4 -3 -11 0 -15 6 -4 8 -3 9 4 5 16 -10 14 3 -3 34 -8
14 -14 42 -15 63 0 24 -5 40 -15 43 -8 3 -24 21 -36 40 -24 40 -36 42 -67 10z
m46 -11 c-3 -3 -9 2 -12 12 -6 14 -5 15 5 6 7 -7 10 -15 7 -18z m37 -103 c-16
-2 -37 -9 -45 -15 -13 -10 -13 -10 -2 5 14 18 50 28 67 19 6 -4 -3 -8 -20 -9z
m125 -148 c0 -3 -4 -2 -10 1 -5 3 -10 -3 -10 -14 0 -11 5 -23 10 -26 6 -3 10
1 10 11 0 12 8 9 32 -14 26 -26 29 -34 18 -47 -33 -40 -92 8 -89 73 3 36 5 40
21 31 10 -5 18 -12 18 -15z"/>
<path d="M1230 1882 c8 -6 43 -13 78 -17 51 -6 62 -10 60 -24 -2 -12 -18 -18
-58 -22 -52 -5 -53 -6 -12 -7 43 -2 49 -10 32 -43 -8 -15 -21 -19 -58 -19 -27
0 -53 -5 -60 -12 -8 -8 -14 -5 -22 16 -19 51 -14 64 28 69 33 3 33 4 -11 5
-38 2 -53 8 -73 30 l-26 27 25 -35 c14 -19 28 -48 31 -65 7 -40 17 -75 23 -75
2 0 15 7 28 16 22 14 38 15 119 7 65 -7 103 -16 122 -30 16 -11 48 -27 71 -36
24 -9 61 -30 84 -47 44 -31 137 -70 169 -70 22 0 70 74 70 108 0 24 -15 30
-23 10 -3 -7 -11 2 -18 20 -13 30 -29 43 -29 22 0 -5 -7 -7 -15 -4 -14 6 -20
-10 -16 -43 1 -7 -8 -13 -21 -13 -16 0 -19 -3 -10 -9 11 -7 10 -10 -3 -15 -25
-9 -65 -7 -65 4 0 6 7 10 15 10 8 0 24 5 34 12 18 11 15 15 -39 56 -33 24 -64
41 -69 38 -5 -4 -13 -1 -17 5 -5 8 -3 9 6 4 9 -6 11 -4 6 4 -5 7 -14 10 -22 7
-8 -3 -13 0 -11 6 1 6 -4 13 -12 16 -9 3 -11 0 -6 -8 5 -9 4 -11 -4 -6 -6 4
-9 11 -6 16 8 13 -80 56 -151 74 -78 19 -164 30 -144 18z m235 -62 c3 -6 -1
-7 -9 -4 -18 7 -21 14 -7 14 6 0 13 -4 16 -10z m-84 -27 c13 -16 12 -17 -3 -4
-10 7 -18 15 -18 17 0 8 8 3 21 -13z m117 -30 c-10 -2 -18 -9 -18 -15 0 -6 -3
-9 -6 -5 -10 10 6 27 24 26 15 -1 15 -2 0 -6z m153 -69 c5 -13 13 -23 18 -22
5 2 10 -1 10 -7 3 -21 -45 -16 -65 6 -10 12 -13 19 -5 14 11 -6 13 -2 9 18 -6
32 19 25 33 -9z m89 -84 c-8 -5 -22 -10 -30 -10 -13 0 -13 1 0 10 8 5 22 10
30 10 13 0 13 -1 0 -10z"/>
<path d="M770 1845 c0 -5 5 -17 10 -25 5 -8 10 -10 10 -5 0 6 -5 17 -10 25 -5
8 -10 11 -10 5z"/>
<path d="M1110 1822 c0 -5 12 -19 27 -33 l27 -24 -23 33 c-23 32 -31 39 -31
24z"/>
<path d="M898 1770 c3 -23 9 -40 17 -40 16 0 25 -67 25 -186 0 -85 8 -112 25
-84 3 6 15 10 26 10 23 0 24 12 8 183 -6 67 -16 128 -21 135 -6 6 -21 12 -34
12 -29 0 -33 -34 -7 -49 15 -8 18 -28 19 -148 l2 -138 -8 135 c-4 74 -8 136
-9 138 0 1 -8 2 -16 2 -10 0 -15 11 -15 35 0 19 -3 35 -8 35 -4 0 -6 -18 -4
-40z"/>
<path d="M791 1789 c-1 -9 -8 -22 -16 -29 -8 -7 -15 -21 -15 -32 0 -11 -11
-33 -25 -50 -14 -16 -25 -42 -24 -56 0 -26 1 -26 9 -4 18 44 40 20 41 -46 0
-20 11 -64 24 -97 26 -66 33 -55 11 16 -15 46 -31 185 -27 229 2 14 10 33 18
42 8 9 13 23 10 30 -4 9 -6 8 -6 -3z"/>
<path d="M1038 1756 c-8 -19 -8 -51 1 -126 11 -100 32 -156 56 -147 7 3 12
-10 13 -37 2 -30 0 -37 -8 -26 -8 12 -10 10 -11 -10 -1 -14 -1 -36 0 -48 1
-16 -2 -21 -9 -17 -9 5 -8 1 0 -16 7 -12 16 -34 21 -48 5 -17 6 -9 2 22 -3 27
-1 65 5 85 23 76 45 209 43 255 -1 27 3 55 10 63 9 11 9 14 0 14 -7 0 -11 8
-9 18 2 12 -3 16 -16 14 -10 -2 -22 2 -27 9 -4 7 -19 14 -33 16 -20 3 -29 -2
-38 -21z m83 -47 c11 -11 19 -23 16 -25 -3 -3 -12 2 -20 11 -9 8 -23 15 -31
15 -18 0 -22 -25 -6 -35 6 -3 10 -12 10 -18 -1 -19 -30 25 -30 44 0 10 8 20
18 22 9 3 18 5 20 6 1 0 11 -8 23 -20z m-14 -20 c6 -6 9 -18 6 -26 -3 -7 0
-34 7 -59 11 -39 11 -47 -1 -55 -19 -12 -39 -11 -39 2 0 5 5 7 10 4 6 -3 10 0
10 7 0 7 3 24 7 37 4 17 3 22 -6 17 -8 -6 -10 -1 -6 17 4 14 2 35 -5 46 -11
22 -1 28 17 10z m-17 -97 c0 -7 -4 -10 -10 -7 -5 3 -10 16 -10 28 0 18 2 19
10 7 5 -8 10 -21 10 -28z"/>
<path d="M1013 1750 c-7 -10 -10 -25 -8 -32 3 -7 11 -97 19 -200 12 -157 17
-194 35 -223 26 -45 26 -48 -1 -34 -29 16 -46 37 -57 74 -7 23 -9 25 -10 9 -1
-12 10 -37 24 -57 14 -22 20 -39 14 -43 -12 -7 -59 22 -59 38 0 6 -3 8 -6 5
-4 -4 -1 -14 6 -23 12 -13 11 -17 -1 -25 -8 -5 -19 -7 -26 -5 -6 3 -13 -4 -16
-15 -3 -10 -10 -19 -15 -19 -14 0 -59 96 -68 142 -3 21 -12 42 -20 49 -21 17
-7 -41 28 -119 27 -62 29 -110 2 -61 l-13 24 2 -29 c3 -40 -21 -45 -36 -7 -6
17 -15 31 -19 31 -5 0 -2 -12 6 -27 8 -16 13 -44 12 -63 -1 -28 -6 -36 -24
-38 -12 -2 -22 -4 -22 -6 0 -1 9 -28 20 -60 12 -32 19 -60 17 -62 -8 -8 -57
73 -57 94 0 15 -4 20 -16 15 -13 -5 -13 -8 -2 -15 9 -6 6 -7 -9 -3 -25 7 -67
-11 -58 -25 3 -5 0 -12 -6 -16 -8 -4 -9 -3 -5 4 14 23 -13 11 -61 -27 -51 -41
-98 -88 -98 -99 0 -4 -4 -6 -9 -4 -15 5 -45 -29 -56 -63 -7 -22 -7 -40 0 -59
11 -30 179 -195 237 -234 21 -14 69 -53 107 -86 37 -33 78 -62 89 -63 11 -2
23 -6 26 -10 3 -3 -4 -4 -16 -1 -13 4 -24 1 -27 -7 -3 -8 -17 -15 -33 -18
l-28 -3 33 -13 c24 -10 31 -18 27 -31 -3 -9 1 -23 10 -30 11 -9 15 -32 15 -86
0 -71 1 -74 24 -74 13 0 29 7 36 15 7 8 21 15 31 15 15 0 19 7 18 33 -1 17 15
79 35 136 20 58 36 113 36 122 0 22 -46 59 -74 59 -12 0 -33 8 -46 17 -17 12
-21 13 -13 3 6 -8 9 -27 6 -42 l-5 -27 -44 47 c-24 26 -53 67 -65 92 -33 68
-39 73 -59 55 -10 -9 -30 -17 -45 -18 -24 -2 -34 6 -52 41 -1 2 -12 -4 -25
-12 -14 -9 -28 -13 -33 -9 -4 5 -5 -1 -2 -12 7 -20 7 -20 -8 -1 -21 27 -19 39
10 66 14 13 25 18 25 11 0 -7 5 -9 13 -5 8 5 8 3 -2 -9 -7 -9 -17 -15 -21 -12
-4 3 -14 -3 -21 -12 -10 -12 -10 -14 -1 -9 7 4 12 2 12 -5 0 -7 23 10 51 39
28 29 58 52 66 52 9 0 13 6 10 13 -4 10 16 19 75 31 98 21 128 34 121 52 -3
10 3 14 19 14 14 0 33 9 42 19 10 11 28 22 42 25 20 5 24 12 24 47 0 46 18 59
53 36 15 -10 41 -14 73 -12 41 3 49 7 46 22 -20 138 -37 181 -91 221 -19 14
-31 32 -31 45 0 12 -9 30 -20 40 -15 12 -20 29 -20 64 0 27 -3 66 -7 88 -6 39
-6 40 14 23 11 -10 25 -18 33 -18 7 0 1 9 -13 21 -34 26 -47 77 -50 194 -1 52
-2 95 -2 95 0 0 -6 -9 -12 -20z m67 -535 c17 -9 30 -18 30 -21 0 -2 -9 0 -20
6 -27 15 -45 3 -28 -18 11 -14 10 -15 -7 -8 -11 5 -29 10 -40 13 -16 3 -15 1
5 -11 14 -8 33 -15 43 -16 33 0 17 -28 -20 -34 -63 -12 -75 -17 -69 -32 8 -21
-31 1 -47 26 -6 11 -17 20 -24 20 -21 0 -15 16 12 30 14 7 25 17 25 22 0 4 8
8 18 8 9 1 28 7 42 15 32 18 45 18 80 0z m-160 -106 c12 -7 11 -8 -6 -9 -11 0
-29 7 -40 16 -18 14 -18 15 6 8 14 -3 32 -10 40 -15z m111 -15 c17 -8 29 -18
26 -20 -6 -6 -67 23 -67 31 0 8 10 6 41 -11z m-153 -53 c-6 -2 -22 9 -37 24
l-26 27 36 -24 c20 -13 32 -25 27 -27z m112 -4 c13 -5 13 -6 -1 -6 -8 -1 -24
6 -35 15 -19 15 -19 15 1 6 11 -5 27 -12 35 -15z m-2 -93 c6 3 13 2 17 -4 3
-6 -3 -10 -15 -10 -16 0 -20 -5 -16 -15 3 -8 1 -15 -4 -15 -6 0 -10 15 -10 33
0 22 3 28 9 18 5 -7 13 -11 19 -7z m-268 -27 c0 -2 -17 -19 -37 -38 l-38 -34
34 38 c33 34 41 42 41 34z m-203 -93 c-3 -3 -12 -4 -19 -1 -8 3 -5 6 6 6 11 1
17 -2 13 -5z m50 -10 c-3 -3 -12 -4 -19 -1 -8 3 -5 6 6 6 11 1 17 -2 13 -5z
m98 -258 c6 -4 1 -4 -10 2 -11 6 -29 21 -40 34 -19 22 -19 22 10 -2 17 -14 35
-29 40 -34z m294 -111 c-13 -45 -16 -173 -5 -202 6 -17 4 -24 -9 -30 -28 -10
-48 24 -41 72 6 47 38 165 49 183 14 21 16 13 6 -23z"/>
<path d="M1255 1700 c27 -12 35 -12 35 0 0 6 -12 10 -27 9 -25 0 -26 -1 -8 -9z"/>
<path d="M669 1613 c-13 -16 -12 -17 4 -4 9 7 17 15 17 17 0 8 -8 3 -21 -13z"/>
<path d="M742 1560 c0 -19 2 -27 5 -17 2 9 2 25 0 35 -3 9 -5 1 -5 -18z"/>
<path d="M722 1510 c0 -14 2 -19 5 -12 2 6 2 18 0 25 -3 6 -5 1 -5 -13z"/>
<path d="M752 1500 c0 -14 2 -19 5 -12 2 6 2 18 0 25 -3 6 -5 1 -5 -13z"/>
<path d="M842 1433 c18 -28 35 -49 37 -47 5 4 -37 70 -54 84 -9 7 -1 -10 17
-37z"/>
<path d="M761 1433 c0 -23 -4 -50 -7 -60 -5 -15 -4 -16 6 -3 9 12 10 9 6 -15
-5 -20 -4 -25 3 -16 7 11 10 9 16 -8 4 -13 9 -20 12 -18 2 3 0 15 -7 26 -6 12
-15 47 -19 79 -8 53 -9 54 -10 15z"/>
<path d="M993 1463 c-16 -3 -23 -11 -22 -26 1 -17 2 -18 6 -4 2 9 13 17 24 17
10 0 19 5 19 10 0 6 -1 9 -2 9 -2 -1 -13 -4 -25 -6z"/>
<path d="M981 1384 c0 -11 3 -14 6 -6 3 7 2 16 -1 19 -3 4 -6 -2 -5 -13z"/>
<path d="M870 1359 c1 -20 36 -95 49 -103 6 -4 0 19 -14 50 -28 64 -35 74 -35
53z"/>
<path d="M809 1285 c17 -33 31 -51 31 -40 0 6 -10 21 -21 35 -13 17 -17 18
-10 5z"/>
<path d="M1055 933 c0 -33 -3 -37 -31 -45 -17 -4 -37 -15 -44 -23 -15 -18 18
-62 113 -150 131 -122 188 -166 239 -187 29 -12 57 -25 62 -29 15 -13 60 20
84 61 27 47 27 47 5 53 -10 3 -2 6 17 7 l35 1 -40 15 c-44 16 -99 65 -121 107
-8 15 -19 25 -24 22 -6 -4 -7 1 -3 11 4 12 3 15 -5 10 -8 -5 -10 -1 -5 10 4
12 3 15 -5 10 -8 -4 -10 -2 -6 7 3 9 -18 40 -52 77 -55 59 -60 62 -95 56 -23
-4 -50 0 -73 9 -49 21 -51 20 -51 -22z m145 -7 c0 -2 -8 -10 -17 -17 -16 -13
-17 -12 -4 4 13 16 21 21 21 13z m55 -46 c21 -22 37 -40 34 -40 -3 0 -23 18
-44 40 -21 22 -37 40 -34 40 3 0 23 -18 44 -40z m-100 12 c-3 -3 -11 0 -18 7
-9 10 -8 11 6 5 10 -3 15 -9 12 -12z m95 -174 c15 -21 17 -28 6 -19 -16 13
-41 51 -33 51 2 0 14 -15 27 -32z m151 -45 c13 -16 12 -17 -3 -4 -17 13 -22
21 -14 21 2 0 10 -8 17 -17z m-130 -60 c13 -16 12 -17 -3 -4 -10 7 -18 15 -18
17 0 8 8 3 21 -13z m182 -57 c-10 -14 -25 -28 -33 -31 -8 -3 -11 -3 -8 1 4 3
-1 14 -10 23 -10 9 -13 13 -7 10 17 -10 45 -7 45 6 0 6 6 17 12 23 21 21 21
-5 1 -32z m-96 18 c-3 -3 -12 -4 -19 -1 -8 3 -5 6 6 6 11 1 17 -2 13 -5z"/>
<path d="M731 740 c0 -8 14 -31 30 -50 30 -34 31 -34 16 -5 -24 46 -46 73 -46
55z"/>
<path d="M810 616 c0 -2 8 -10 18 -17 15 -13 16 -12 3 4 -13 16 -21 21 -21 13z"/>
<path d="M1521 597 c-11 -13 -21 -30 -21 -39 0 -8 -16 -31 -35 -51 l-35 -36
43 -34 c23 -19 89 -67 147 -107 139 -96 161 -117 154 -147 -5 -18 1 -32 24
-56 16 -18 35 -49 41 -69 17 -53 36 -66 62 -42 31 28 59 89 58 126 0 18 -3 26
-6 18 -2 -8 -7 -22 -10 -30 -9 -30 -33 22 -33 74 -1 28 -7 69 -15 91 -18 49
-18 45 -2 45 13 0 45 -85 48 -126 1 -10 5 8 9 41 7 66 1 87 -26 91 -11 1 -30
6 -43 10 -22 6 -23 5 -17 -17 20 -65 20 -67 -21 -86 -36 -18 -40 -18 -56 -3
-9 9 -17 24 -17 33 0 10 -7 17 -16 17 -22 0 -80 35 -127 77 -31 28 -44 33 -67
28 -15 -3 -31 -2 -34 3 -3 6 2 8 13 5 11 -3 21 2 25 13 9 25 1 28 -34 14 -45
-19 -56 -1 -25 40 34 46 32 52 -4 12 -30 -32 -45 -39 -55 -24 -3 5 7 16 22 24
15 9 36 37 47 62 14 32 26 46 39 46 19 0 18 -1 -2 -23 -12 -13 -22 -30 -22
-38 0 -8 9 1 21 20 20 33 20 33 42 14 44 -38 62 -48 35 -18 -15 17 -40 38 -56
47 -28 17 -30 17 -51 -5z"/>
</g>
</svg>
